# xmcd
#
# Track frame offsets: 
#        150
#        14207
#        29442
#        43422
#        60585
#        80245
#        93310
#        108347
#        129030
#        143585
#
# Disc length: 2138 seconds
#
# Revision: 3
# Processed by: cddbd v1.5.2PL0 Copyright (c) Steve Scherf et al.
# Submitted via: ExactAudioCopy v0.95b3
#
DISCID=8608580a
DTITLE=Jo-El Sonnier - Tears Of Joy
DYEAR=1991
DGENRE=
TTITLE0=All American Saturday Night
TTITLE1=Fire On The Line
TTITLE2=Smile When You Say That
TTITLE3=Some Kinda Voodoo
TTITLE4=Tears Of Joy
TTITLE5=You May Change Your Mind
TTITLE6=Do Me A Favor, Don't
TTITLE7=Let's Give Love One More Try
TTITLE8=Harder Than It Sounds
TTITLE9=Telling You Goodbye
EXTD=AMG REVIEW: It's in the Cajun/pop/country mold of his RCA albums.
EXTD=- Mark A. Humphrey, All-Music Guide
EXTT0=
EXTT1=
EXTT2=
EXTT3=
EXTT4=
EXTT5=
EXTT6=
EXTT7=
EXTT8=
EXTT9=
PLAYORDER=
